<?xml version="1.0" encoding="utf-8"?>
<!-- Generator: Adobe Illustrator 28.1.0, SVG Export Plug-In . SVG Version: 6.00 Build 0)  -->
<svg version="1.1" id="レイヤー_1" xmlns="http://www.w3.org/2000/svg" xmlns:xlink="http://www.w3.org/1999/xlink" x="0px"
	 y="0px" viewBox="0 0 167.2 34.9" style="enable-background:new 0 0 167.2 34.9;" xml:space="preserve">
<style type="text/css">
	.st0{fill:url(#SVGID_1_);}
	.st1{fill:url(#SVGID_00000072249046106290700380000017607490913009414822_);}
	.st2{fill:url(#SVGID_00000160149208260577849560000005817849475045642418_);}
	.st3{fill:url(#SVGID_00000113333290852117937090000002463528410893314441_);}
	.st4{fill:url(#SVGID_00000031908849506679506460000012485149728427793075_);}
	.st5{fill:url(#SVGID_00000092443863673422808000000005742325900199727544_);}
	.st6{fill:url(#SVGID_00000119108081125204098980000013337294918843279280_);}
	.st7{fill:url(#SVGID_00000162345166097080130980000018047036979435687584_);}
	.st8{fill:#8F8F8F;}
</style>
<g>
	<linearGradient id="SVGID_1_" gradientUnits="userSpaceOnUse" x1="19.5283" y1="32.4975" x2="22.9675" y2="32.4975">
		<stop  offset="0" style="stop-color:#008EE5"/>
		<stop  offset="0.2778" style="stop-color:#0090E5"/>
		<stop  offset="0.3778" style="stop-color:#0097E6"/>
		<stop  offset="0.4489" style="stop-color:#00A2E8"/>
		<stop  offset="0.5062" style="stop-color:#00B3EB"/>
		<stop  offset="0.5112" style="stop-color:#00B5EB"/>
		<stop  offset="0.6148" style="stop-color:#03B6EB"/>
		<stop  offset="0.6809" style="stop-color:#0BB8EC"/>
		<stop  offset="0.7365" style="stop-color:#1ABDED"/>
		<stop  offset="0.7864" style="stop-color:#2FC3EF"/>
		<stop  offset="0.8324" style="stop-color:#4ACAF1"/>
		<stop  offset="0.8756" style="stop-color:#6BD4F3"/>
		<stop  offset="0.9165" style="stop-color:#93E0F7"/>
		<stop  offset="0.9556" style="stop-color:#C1EDFA"/>
		<stop  offset="0.9921" style="stop-color:#F3FCFE"/>
		<stop  offset="1" style="stop-color:#FFFFFF"/>
	</linearGradient>
	<path class="st0" d="M20.9,31.1l-1,1c-0.5,0.5-0.5,1.3,0,1.8c0.5,0.5,1.3,0.5,1.8,0l1-1c0.5-0.5,0.5-1.3,0-1.8
		C22.1,30.7,21.3,30.7,20.9,31.1z"/>
	
		<linearGradient id="SVGID_00000017505849424238746780000012588624548589643162_" gradientUnits="userSpaceOnUse" x1="30.8798" y1="20.8046" x2="34.3189" y2="20.8046">
		<stop  offset="0" style="stop-color:#008EE5"/>
		<stop  offset="0.2778" style="stop-color:#0090E5"/>
		<stop  offset="0.3778" style="stop-color:#0097E6"/>
		<stop  offset="0.4489" style="stop-color:#00A2E8"/>
		<stop  offset="0.5062" style="stop-color:#00B3EB"/>
		<stop  offset="0.5112" style="stop-color:#00B5EB"/>
		<stop  offset="0.6148" style="stop-color:#03B6EB"/>
		<stop  offset="0.6809" style="stop-color:#0BB8EC"/>
		<stop  offset="0.7365" style="stop-color:#1ABDED"/>
		<stop  offset="0.7864" style="stop-color:#2FC3EF"/>
		<stop  offset="0.8324" style="stop-color:#4ACAF1"/>
		<stop  offset="0.8756" style="stop-color:#6BD4F3"/>
		<stop  offset="0.9165" style="stop-color:#93E0F7"/>
		<stop  offset="0.9556" style="stop-color:#C1EDFA"/>
		<stop  offset="0.9921" style="stop-color:#F3FCFE"/>
		<stop  offset="1" style="stop-color:#FFFFFF"/>
	</linearGradient>
	<path style="fill:url(#SVGID_00000017505849424238746780000012588624548589643162_);" d="M32.2,19.5l-1,1c-0.5,0.5-0.5,1.3,0,1.8
		c0.5,0.5,1.3,0.5,1.8,0l1-1c0.5-0.5,0.5-1.3,0-1.8C33.5,19,32.7,19,32.2,19.5z"/>
	
		<linearGradient id="SVGID_00000084532387381245470330000017577627684176993460_" gradientUnits="userSpaceOnUse" x1="2.9493" y1="17.0907" x2="34.2342" y2="17.0907">
		<stop  offset="0" style="stop-color:#008EE5"/>
		<stop  offset="0.2778" style="stop-color:#0090E5"/>
		<stop  offset="0.3778" style="stop-color:#0097E6"/>
		<stop  offset="0.4489" style="stop-color:#00A2E8"/>
		<stop  offset="0.5062" style="stop-color:#00B3EB"/>
		<stop  offset="0.5112" style="stop-color:#00B5EB"/>
		<stop  offset="0.6148" style="stop-color:#03B6EB"/>
		<stop  offset="0.6809" style="stop-color:#0BB8EC"/>
		<stop  offset="0.7365" style="stop-color:#1ABDED"/>
		<stop  offset="0.7864" style="stop-color:#2FC3EF"/>
		<stop  offset="0.8324" style="stop-color:#4ACAF1"/>
		<stop  offset="0.8756" style="stop-color:#6BD4F3"/>
		<stop  offset="0.9165" style="stop-color:#93E0F7"/>
		<stop  offset="0.9556" style="stop-color:#C1EDFA"/>
		<stop  offset="0.9921" style="stop-color:#F3FCFE"/>
		<stop  offset="1" style="stop-color:#FFFFFF"/>
	</linearGradient>
	<path style="fill:url(#SVGID_00000084532387381245470330000017577627684176993460_);" d="M32.1,14.2l-2.1,2.1
		c-0.5-0.1-0.8-0.5-0.9-0.9l1.6-1.6c0.5-0.5,0.5-1.3,0-1.7l0,0c-0.5-0.5-1.2-0.5-1.7,0l-4.3,4.3c0,0-0.1,0-0.1,0
		c-0.6,0-1.1-0.6-1.1-1.2l2.4-2.4c0.4-0.4,0.4-1.1,0-1.5l-0.3-0.3c-0.4-0.4-1.1-0.4-1.5,0l-6.4,6.4c-0.4-0.1-0.8-0.5-0.8-0.9l6-6
		c0.4-0.4,0.4-1.1,0-1.5l-0.3-0.3c-0.4-0.4-1.1-0.4-1.5,0l-8.6,8.6c-0.1,0-0.1,0-0.2,0c-0.4,0-0.9-0.4-0.9-0.8L22.8,5.2
		c0.5-0.5,0.5-1.3,0-1.8C22.3,3,21.5,3,21,3.5l-2.2,2.2c0,0-0.1,0-0.1,0c-0.6,0-1.1-0.6-1.1-1.2L20,2.1c0.5-0.5,0.5-1.3,0-1.8
		c-0.5-0.5-1.3-0.5-1.8,0l-6.5,6.5c-0.5,0.5-0.5,1.3,0,1.8s1.3,0.5,1.8,0l2-2c0.6-0.1,1.2,0.5,1.2,1.1c0,0,0,0.1,0,0.1L3.3,21.2
		c-0.5,0.5-0.5,1.3,0,1.8c0.5,0.5,1.3,0.5,1.8,0l4.6-4.6c0.4,0.1,0.8,0.5,0.8,1c0,0.1,0,0.1,0,0.2l-1.7,1.7c-0.4,0.4-0.4,1.1,0,1.5
		l0.3,0.3c0.4,0.4,1.1,0.4,1.5,0l4.6-4.6c0.4,0,0.8,0.4,0.9,0.8l-4.3,4.3c-0.4,0.4-0.4,1.1,0,1.5l0.3,0.3c0.4,0.4,1.1,0.4,1.5,0
		l7.8-7.8c0.6-0.1,1.2,0.5,1.2,1.1c0,0,0,0,0,0.1L12,29c-0.5,0.5-0.5,1.3,0,1.7l0,0c0.5,0.5,1.2,0.5,1.7,0l2.6-2.6
		c0.5,0,0.9,0.4,1,0.9l-3,3c-0.5,0.5-0.5,1.3,0,1.8c0.5,0.5,1.3,0.5,1.8,0l6.5-6.5c0.5-0.5,0.5-1.3,0-1.8c-0.5-0.5-1.3-0.5-1.8,0
		L19,27.3c-0.5,0-0.9-0.5-0.9-0.9l9.2-9.2c0.5,0,0.9,0.4,1,0.8l-2.7,2.7c-0.5,0.5-0.5,1.3,0,1.8l0,0c0.5,0.5,1.3,0.5,1.8,0l6.5-6.5
		c0.5-0.5,0.5-1.3,0-1.8l0,0C33.4,13.7,32.6,13.7,32.1,14.2z"/>
	
		<linearGradient id="SVGID_00000033357932987265542200000000424893546708854919_" gradientUnits="userSpaceOnUse" x1="0.1065" y1="13.4354" x2="3.5456" y2="13.4354">
		<stop  offset="0" style="stop-color:#008EE5"/>
		<stop  offset="0.2778" style="stop-color:#0090E5"/>
		<stop  offset="0.3778" style="stop-color:#0097E6"/>
		<stop  offset="0.4489" style="stop-color:#00A2E8"/>
		<stop  offset="0.5062" style="stop-color:#00B3EB"/>
		<stop  offset="0.5112" style="stop-color:#00B5EB"/>
		<stop  offset="0.6148" style="stop-color:#03B6EB"/>
		<stop  offset="0.6809" style="stop-color:#0BB8EC"/>
		<stop  offset="0.7365" style="stop-color:#1ABDED"/>
		<stop  offset="0.7864" style="stop-color:#2FC3EF"/>
		<stop  offset="0.8324" style="stop-color:#4ACAF1"/>
		<stop  offset="0.8756" style="stop-color:#6BD4F3"/>
		<stop  offset="0.9165" style="stop-color:#93E0F7"/>
		<stop  offset="0.9556" style="stop-color:#C1EDFA"/>
		<stop  offset="0.9921" style="stop-color:#F3FCFE"/>
		<stop  offset="1" style="stop-color:#FFFFFF"/>
	</linearGradient>
	<path style="fill:url(#SVGID_00000033357932987265542200000000424893546708854919_);" d="M2.2,14.8l1-1c0.5-0.5,0.5-1.3,0-1.8l0,0
		c-0.5-0.5-1.3-0.5-1.8,0l-1,1c-0.5,0.5-0.5,1.3,0,1.8l0,0C0.9,15.3,1.7,15.3,2.2,14.8z"/>
	
		<linearGradient id="SVGID_00000077313564864552173940000005636163541822071685_" gradientUnits="userSpaceOnUse" x1="11.4556" y1="2.0863" x2="14.8947" y2="2.0863">
		<stop  offset="0" style="stop-color:#008EE5"/>
		<stop  offset="0.2778" style="stop-color:#0090E5"/>
		<stop  offset="0.3778" style="stop-color:#0097E6"/>
		<stop  offset="0.4489" style="stop-color:#00A2E8"/>
		<stop  offset="0.5062" style="stop-color:#00B3EB"/>
		<stop  offset="0.5112" style="stop-color:#00B5EB"/>
		<stop  offset="0.6148" style="stop-color:#03B6EB"/>
		<stop  offset="0.6809" style="stop-color:#0BB8EC"/>
		<stop  offset="0.7365" style="stop-color:#1ABDED"/>
		<stop  offset="0.7864" style="stop-color:#2FC3EF"/>
		<stop  offset="0.8324" style="stop-color:#4ACAF1"/>
		<stop  offset="0.8756" style="stop-color:#6BD4F3"/>
		<stop  offset="0.9165" style="stop-color:#93E0F7"/>
		<stop  offset="0.9556" style="stop-color:#C1EDFA"/>
		<stop  offset="0.9921" style="stop-color:#F3FCFE"/>
		<stop  offset="1" style="stop-color:#FFFFFF"/>
	</linearGradient>
	<path style="fill:url(#SVGID_00000077313564864552173940000005636163541822071685_);" d="M13.6,3.4l1-1C15,2,15,1.2,14.5,0.7l0,0
		c-0.5-0.5-1.3-0.5-1.8,0l-1,1c-0.5,0.5-0.5,1.3,0,1.8l0,0C12.3,3.9,13.1,3.9,13.6,3.4z"/>
	
		<linearGradient id="SVGID_00000084509156486084519550000005717961478977014451_" gradientUnits="userSpaceOnUse" x1="9.094947e-13" y1="16.2972" x2="8.9846" y2="16.2972">
		<stop  offset="0" style="stop-color:#008EE5"/>
		<stop  offset="0.2778" style="stop-color:#0090E5"/>
		<stop  offset="0.3778" style="stop-color:#0097E6"/>
		<stop  offset="0.4489" style="stop-color:#00A2E8"/>
		<stop  offset="0.5062" style="stop-color:#00B3EB"/>
		<stop  offset="0.5112" style="stop-color:#00B5EB"/>
		<stop  offset="0.6148" style="stop-color:#03B6EB"/>
		<stop  offset="0.6809" style="stop-color:#0BB8EC"/>
		<stop  offset="0.7365" style="stop-color:#1ABDED"/>
		<stop  offset="0.7864" style="stop-color:#2FC3EF"/>
		<stop  offset="0.8324" style="stop-color:#4ACAF1"/>
		<stop  offset="0.8756" style="stop-color:#6BD4F3"/>
		<stop  offset="0.9165" style="stop-color:#93E0F7"/>
		<stop  offset="0.9556" style="stop-color:#C1EDFA"/>
		<stop  offset="0.9921" style="stop-color:#F3FCFE"/>
		<stop  offset="1" style="stop-color:#FFFFFF"/>
	</linearGradient>
	<path style="fill:url(#SVGID_00000084509156486084519550000005717961478977014451_);" d="M2.1,20.4l6.5-6.5c0.5-0.5,0.5-1.3,0-1.8
		l0,0c-0.5-0.5-1.3-0.5-1.8,0l-6.5,6.5c-0.5,0.5-0.5,1.3,0,1.8l0,0C0.8,20.9,1.6,20.9,2.1,20.4z"/>
</g>
<linearGradient id="SVGID_00000127751271677174605610000011798022029915756936_" gradientUnits="userSpaceOnUse" x1="44.2933" y1="15.6528" x2="104.4729" y2="15.6528">
	<stop  offset="0" style="stop-color:#36AFF4"/>
	<stop  offset="0.5353" style="stop-color:#37ADF4"/>
	<stop  offset="0.7282" style="stop-color:#3AA6F3"/>
	<stop  offset="0.8651" style="stop-color:#3F9BF2"/>
	<stop  offset="0.9756" style="stop-color:#478AF0"/>
	<stop  offset="1" style="stop-color:#4985F0"/>
</linearGradient>
<path style="fill:url(#SVGID_00000127751271677174605610000011798022029915756936_);" d="M44.3,6.9h0.9l8.3,8.3l8.3-8.3h2v17.5h-3.9
	V13.7l-6.9,6.8l-6.8-6.8v10.7h-2V6.9z M68.2,24.4V6.9H78v1.9h-5.8v5.9H76v1.9h-3.9v5.8H78v1.9H68.2z M82.5,24.4V6.9h7.8
	c1.2,0,2.2,0.4,2.9,1.1s1.1,1.7,1.1,3v9.3c0,1.3-0.4,2.3-1.1,3c-0.7,0.7-1.7,1.1-2.9,1.1H82.5z M86.4,22.5h1.5
	c0.8,0,1.4-0.2,1.8-0.6c0.4-0.4,0.6-0.9,0.6-1.5v-9.5c0-0.6-0.2-1.1-0.6-1.5c-0.4-0.4-0.8-0.6-1.4-0.6h-2V22.5z M100.6,6.9h3.9v17.5
	h-3.9V6.9z"/>
<linearGradient id="SVGID_00000037688724696838416570000008949218749251424160_" gradientUnits="userSpaceOnUse" x1="110.9352" y1="15.6528" x2="167.2128" y2="15.6528">
	<stop  offset="1.385225e-07" style="stop-color:#EC4E7F"/>
	<stop  offset="0.5406" style="stop-color:#ED4E81"/>
	<stop  offset="0.7354" style="stop-color:#F05088"/>
	<stop  offset="0.8736" style="stop-color:#F65393"/>
	<stop  offset="0.9852" style="stop-color:#FE57A4"/>
	<stop  offset="1" style="stop-color:#FF58A7"/>
</linearGradient>
<path style="fill:url(#SVGID_00000037688724696838416570000008949218749251424160_);" d="M110.9,6.9h7.9c1,0,1.9,0.4,2.7,1.2
	c0.8,0.8,1.2,1.7,1.2,2.7v1.9c0,1.1-0.4,2-1.1,2.8s-1.7,1.2-2.8,1.2h-3.9v7.8h-3.9V6.9z M114.8,8.8v5.9h1.9c0.5,0,1-0.2,1.4-0.5
	c0.4-0.4,0.6-0.9,0.6-1.5v-1.8c0-0.5-0.2-1-0.5-1.4c-0.4-0.4-0.8-0.6-1.4-0.6H114.8z M127.1,6.9h3.9v15.6h5.8v1.9h-9.7V6.9z
	 M141.3,6.9h3.9v13.5c0,0.6,0.2,1.1,0.6,1.5c0.4,0.4,0.9,0.5,1.4,0.5c0.6,0,1-0.2,1.4-0.6c0.4-0.4,0.6-0.9,0.6-1.5V6.9h3.9v13.5
	c0,1.2-0.4,2.1-1.2,2.9c-0.8,0.8-1.7,1.1-2.8,1.1h-3.9c-1.1,0-2.1-0.4-2.8-1.2c-0.7-0.8-1.1-1.7-1.1-2.8V6.9z M159.5,20.6v0.3
	c0,0.5,0.2,0.9,0.6,1.2c0.4,0.3,0.9,0.4,1.4,0.4c0.6,0,1.1-0.2,1.4-0.5c0.3-0.3,0.5-0.8,0.5-1.5c0-0.5-0.3-1-0.8-1.6l-3.9-4.4
	c-0.7-0.8-1.1-1.7-1.1-2.7v-0.9c0-1.1,0.4-2,1.1-2.8c0.7-0.8,1.6-1.2,2.7-1.2h2.1c2.4,0,3.7,1.3,3.8,3.8h-2
	c-0.2-1.3-0.8-1.9-1.8-1.9c-0.6,0-1.1,0.2-1.5,0.5c-0.3,0.3-0.5,0.8-0.5,1.4c0,0.5,0.2,1,0.7,1.5l3.9,4.4c0.8,0.9,1.2,1.9,1.2,2.9
	v0.9c0,1.1-0.4,2-1.2,2.8c-0.8,0.8-1.7,1.2-2.8,1.2h-1.8c-2.6,0-3.9-1.3-3.9-3.8H159.5z"/>
<g>
	<path class="st8" d="M50.8,32.8v-2.4c0-0.3,0.1-0.6,0.3-0.8c0.2-0.2,0.4-0.3,0.8-0.3h0.9c0.3,0,0.5,0.1,0.7,0.3
		c0.2,0.2,0.3,0.4,0.3,0.8v2.4c0,0.3-0.1,0.6-0.3,0.8c-0.2,0.2-0.4,0.3-0.7,0.3h-0.9c-0.3,0-0.6-0.1-0.8-0.3
		C50.9,33.3,50.8,33.1,50.8,32.8z M51.8,30.4v2.4c0,0.2,0,0.3,0.1,0.4c0.1,0.1,0.2,0.1,0.4,0.1c0.1,0,0.2,0,0.3-0.1
		c0.1-0.1,0.2-0.2,0.2-0.4v-2.4c0-0.2,0-0.3-0.1-0.4c-0.1-0.1-0.2-0.1-0.3-0.1c-0.1,0-0.3,0-0.4,0.1C51.9,30.1,51.8,30.2,51.8,30.4z
		"/>
	<path class="st8" d="M56,29.4h0.2l2.7,2.5v-2.5h0.5v4.5h-0.2l-2.7-2.5v2.5H56V29.4z"/>
	<path class="st8" d="M61.6,29.4h1v4h1.5v0.5h-2.5V29.4z"/>
	<path class="st8" d="M66.8,29.4h1v4.5h-1V29.4z"/>
	<path class="st8" d="M70.4,29.4h0.2l2.7,2.5v-2.5h0.5v4.5h-0.2l-2.7-2.5v2.5h-0.5V29.4z"/>
	<path class="st8" d="M76.1,33.8v-4.5h2.5v0.5H77v1.5h1v0.5h-1v1.5h1.5v0.5H76.1z"/>
	<path class="st8" d="M83.9,29.4h0.2l2.1,2.1l2.1-2.1h0.5v4.5h-1v-2.7l-1.7,1.7l-1.7-1.7v2.7h-0.5V29.4z"/>
	<path class="st8" d="M91,33.8v-4.5h2.5v0.5H92v1.5h1v0.5h-1v1.5h1.5v0.5H91z"/>
	<path class="st8" d="M95.6,33.8v-4.5h2c0.3,0,0.6,0.1,0.7,0.3c0.2,0.2,0.3,0.4,0.3,0.8v2.4c0,0.3-0.1,0.6-0.3,0.8
		c-0.2,0.2-0.4,0.3-0.7,0.3H95.6z M96.6,33.3H97c0.2,0,0.4,0,0.5-0.1c0.1-0.1,0.2-0.2,0.2-0.4v-2.4c0-0.2,0-0.3-0.1-0.4
		c-0.1-0.1-0.2-0.1-0.3-0.1h-0.5V33.3z"/>
	<path class="st8" d="M101.3,29.4h1v4.5h-1V29.4z"/>
	<path class="st8" d="M107.4,32.8h0.5c0,0.6-0.4,1-1,1h-1c-0.3,0-0.5-0.1-0.7-0.3c-0.2-0.2-0.3-0.4-0.3-0.7v-2.4
		c0-0.3,0.1-0.5,0.3-0.7c0.2-0.2,0.4-0.3,0.7-0.3h1c0.6,0,1,0.3,1,1h-0.5c0-0.3-0.2-0.5-0.5-0.5h-0.5c-0.2,0-0.3,0-0.4,0.1
		c-0.1,0.1-0.1,0.2-0.1,0.4v2.4c0,0.2,0,0.3,0.1,0.4c0.1,0.1,0.2,0.1,0.4,0.1h0.5C107.2,33.3,107.4,33.2,107.4,32.8z"/>
	<path class="st8" d="M113.1,33.8h-1v-2h-1v2h-1v-3.4c0-0.3,0.1-0.5,0.3-0.7c0.2-0.2,0.4-0.3,0.7-0.3h1c0.3,0,0.5,0.1,0.7,0.3
		c0.2,0.2,0.3,0.4,0.3,0.7V33.8z M112.1,31.3v-1c0-0.2-0.1-0.3-0.2-0.4c-0.1-0.1-0.2-0.1-0.3-0.1c-0.1,0-0.3,0-0.4,0.1
		c-0.1,0.1-0.1,0.2-0.1,0.4v1H112.1z"/>
	<path class="st8" d="M115.2,29.4h1v4h1.5v0.5h-2.5V29.4z"/>
	<path class="st8" d="M123.5,32.8L123.5,32.8c0,0.2,0.1,0.3,0.2,0.4c0.1,0.1,0.2,0.1,0.3,0.1c0.2,0,0.3,0,0.4-0.1
		c0.1-0.1,0.1-0.2,0.1-0.4c0-0.1-0.1-0.3-0.2-0.4l-1-1.1c-0.2-0.2-0.3-0.4-0.3-0.7v-0.2c0-0.3,0.1-0.5,0.3-0.7
		c0.2-0.2,0.4-0.3,0.7-0.3h0.5c0.6,0,0.9,0.3,1,1H125c0-0.3-0.2-0.5-0.5-0.5c-0.2,0-0.3,0-0.4,0.1c-0.1,0.1-0.1,0.2-0.1,0.4
		c0,0.1,0.1,0.2,0.2,0.4l1,1.1c0.2,0.2,0.3,0.5,0.3,0.7v0.2c0,0.3-0.1,0.5-0.3,0.7c-0.2,0.2-0.4,0.3-0.7,0.3h-0.5c-0.7,0-1-0.3-1-1
		H123.5z"/>
	<path class="st8" d="M127.7,33.8v-4.5h2.5v0.5h-1.5v1.5h1v0.5h-1v1.5h1.5v0.5H127.7z"/>
	<path class="st8" d="M132.3,33.8v-4.5h2c0.3,0,0.5,0.1,0.7,0.3c0.2,0.2,0.3,0.4,0.3,0.7v0.3c0,0.2-0.1,0.5-0.2,0.6
		c-0.2,0.2-0.4,0.3-0.8,0.3h0.5c0.1,0,0.3,0,0.4,0.1c0.1,0.1,0.2,0.2,0.2,0.4v1.7h-1v-1.4c0-0.2,0-0.3-0.1-0.4
		c-0.1-0.1-0.2-0.1-0.4-0.1h-0.5v2H132.3z M133.3,29.9v1.5h0.5c0.1,0,0.3,0,0.4-0.1c0.1-0.1,0.2-0.2,0.2-0.4v-0.5
		c0-0.1,0-0.3-0.1-0.4c-0.1-0.1-0.2-0.2-0.4-0.2H133.3z"/>
	<path class="st8" d="M140.5,32.1c0,0.5-0.2,0.9-0.5,1.2c-0.3,0.3-0.7,0.5-1.2,0.5h-1.3v-4.5h1v4h0.5c0.1,0,0.3,0,0.4-0.1
		c0.1-0.1,0.2-0.2,0.2-0.4v-3.4h1V32.1z"/>
	<path class="st8" d="M143.1,29.4h1v4.5h-1V29.4z"/>
	<path class="st8" d="M149.3,32.8h0.5c0,0.6-0.4,1-1,1h-1c-0.3,0-0.5-0.1-0.7-0.3c-0.2-0.2-0.3-0.4-0.3-0.7v-2.4
		c0-0.3,0.1-0.5,0.3-0.7c0.2-0.2,0.4-0.3,0.7-0.3h1c0.6,0,1,0.3,1,1h-0.5c0-0.3-0.2-0.5-0.5-0.5h-0.5c-0.2,0-0.3,0-0.4,0.1
		c-0.1,0.1-0.1,0.2-0.1,0.4v2.4c0,0.2,0,0.3,0.1,0.4c0.1,0.1,0.2,0.1,0.4,0.1h0.5C149.1,33.3,149.2,33.2,149.3,32.8z"/>
	<path class="st8" d="M151.9,33.8v-4.5h2.5v0.5h-1.5v1.5h1v0.5h-1v1.5h1.5v0.5H151.9z"/>
</g>
</svg>
